<mxfile host="Electron" modified="2023-11-11T06:34:48.411Z" agent="Mozilla/5.0 (X11; Linux x86_64) AppleWebKit/537.36 (KHTML, like Gecko) draw.io/22.0.3 Chrome/114.0.5735.289 Electron/25.8.4 Safari/537.36" etag="b3KPw_n_fLGqjhlqIpG1" version="22.0.3" type="device">
  <diagram name="Page-1" id="DE2Egb7rzKDN__Y2lRfj">
    <mxGraphModel dx="683" dy="406" grid="1" gridSize="10" guides="1" tooltips="1" connect="1" arrows="1" fold="1" page="1" pageScale="1" pageWidth="827" pageHeight="1169" math="0" shadow="0">
      <root>
        <mxCell id="0" />
        <mxCell id="1" parent="0" />
        <mxCell id="Gyes6UkAJcrJU4tyv3z2-25" value="" style="rounded=0;whiteSpace=wrap;html=1;fillColor=#eeeeee;strokeColor=#36393d;" vertex="1" parent="1">
          <mxGeometry x="130" y="380" width="390" height="290" as="geometry" />
        </mxCell>
        <mxCell id="lrIJ7dgzQLznSiRaQzVH-8" style="edgeStyle=orthogonalEdgeStyle;rounded=0;orthogonalLoop=1;jettySize=auto;html=1;" parent="1" source="lrIJ7dgzQLznSiRaQzVH-34" target="lrIJ7dgzQLznSiRaQzVH-3" edge="1">
          <mxGeometry relative="1" as="geometry">
            <mxPoint x="241.5" y="516" as="sourcePoint" />
            <Array as="points">
              <mxPoint x="340" y="500" />
              <mxPoint x="340" y="465" />
            </Array>
          </mxGeometry>
        </mxCell>
        <mxCell id="lrIJ7dgzQLznSiRaQzVH-6" value="" style="group" parent="1" vertex="1" connectable="0">
          <mxGeometry x="382.5" y="440" width="35.42000000000002" height="49.5" as="geometry" />
        </mxCell>
        <mxCell id="lrIJ7dgzQLznSiRaQzVH-3" value="" style="sketch=0;shadow=0;dashed=0;html=1;strokeColor=none;fillColor=#505050;labelPosition=center;verticalLabelPosition=bottom;verticalAlign=top;outlineConnect=0;align=center;shape=mxgraph.office.databases.database;" parent="lrIJ7dgzQLznSiRaQzVH-6" vertex="1">
          <mxGeometry width="35" height="49" as="geometry" />
        </mxCell>
        <mxCell id="lrIJ7dgzQLznSiRaQzVH-5" value="" style="shape=image;verticalLabelPosition=bottom;labelBackgroundColor=default;verticalAlign=top;aspect=fixed;imageAspect=0;image=data:image/svg+xml,PHN2ZyB4bWxucz0iaHR0cDovL3d3dy53My5vcmcvMjAwMC9zdmciIHhtbDpzcGFjZT0icHJlc2VydmUiIHZpZXdCb3g9IjAgMCA0MzIuMDcxIDQ0NS4zODMiIGhlaWdodD0iNDQ1LjM4M3B0IiB3aWR0aD0iNDMyLjA3MXB0Ij4mI3hhOzxnIHN0eWxlPSJmaWxsLXJ1bGU6bm9uemVybztjbGlwLXJ1bGU6bm9uemVybztzdHJva2U6IzAwMDAwMDtzdHJva2UtbWl0ZXJsaW1pdDo0OyIgaWQ9Im9yZ2luYWwiPiYjeGE7CTwvZz4mI3hhOzxnIHN0eWxlPSJmaWxsLXJ1bGU6bm9uemVybztjbGlwLXJ1bGU6bm9uemVybztmaWxsOm5vbmU7c3Ryb2tlOiNGRkZGRkY7c3Ryb2tlLXdpZHRoOjEyLjQ2NTE7c3Ryb2tlLWxpbmVjYXA6cm91bmQ7c3Ryb2tlLWxpbmVqb2luOnJvdW5kO3N0cm9rZS1taXRlcmxpbWl0OjQ7IiBpZD0iTGF5ZXJfeDAwMjBfMyI+JiN4YTs8cGF0aCBkPSJNMzIzLjIwNSwzMjQuMjI3YzIuODMzLTIzLjYwMSwxLjk4NC0yNy4wNjIsMTkuNTYzLTIzLjIzOWw0LjQ2MywwLjM5MmMxMy41MTcsMC42MTUsMzEuMTk5LTIuMTc0LDQxLjU4Ny03YzIyLjM2Mi0xMC4zNzYsMzUuNjIyLTI3LjcsMTMuNTcyLTIzLjE0OGMtNTAuMjk3LDEwLjM3Ni01My43NTUtNi42NTUtNTMuNzU1LTYuNjU1YzUzLjExMS03OC44MDMsNzUuMzEzLTE3OC44MzYsNTYuMTQ5LTIwMy4zMjIgICAgQzM1Mi41MTQtNS41MzQsMjYyLjAzNiwyNi4wNDksMjYwLjUyMiwyNi44NjlsLTAuNDgyLDAuMDg5Yy05LjkzOC0yLjA2Mi0yMS4wNi0zLjI5NC0zMy41NTQtMy40OTZjLTIyLjc2MS0wLjM3NC00MC4wMzIsNS45NjctNTMuMTMzLDE1LjkwNGMwLDAtMTYxLjQwOC02Ni40OTgtMTUzLjg5OSw4My42MjhjMS41OTcsMzEuOTM2LDQ1Ljc3NywyNDEuNjU1LDk4LjQ3LDE3OC4zMSAgICBjMTkuMjU5LTIzLjE2MywzNy44NzEtNDIuNzQ4LDM3Ljg3MS00Mi43NDhjOS4yNDIsNi4xNCwyMC4zMDcsOS4yNzIsMzEuOTEyLDguMTQ3bDAuODk3LTAuNzY1Yy0wLjI4MSwyLjg3Ni0wLjE1Nyw1LjY4OSwwLjM1OSw5LjAxOWMtMTMuNTcyLDE1LjE2Ny05LjU4NCwxNy44My0zNi43MjMsMjMuNDE2Yy0yNy40NTcsNS42NTktMTEuMzI2LDE1LjczNC0wLjc5NywxOC4zNjdjMTIuNzY4LDMuMTkzLDQyLjMwNSw3LjcxNiw2Mi4yNjgtMjAuMjI0ICAgIGwtMC43OTUsMy4xODhjNS4zMjUsNC4yNiw0Ljk2NSwzMC42MTksNS43Miw0OS40NTJjMC43NTYsMTguODM0LDIuMDE3LDM2LjQwOSw1Ljg1Niw0Ni43NzFjMy44MzksMTAuMzYsOC4zNjksMzcuMDUsNDQuMDM2LDI5LjQwNmMyOS44MDktNi4zODgsNTIuNi0xNS41ODIsNTQuNjc3LTEwMS4xMDciIHN0eWxlPSJmaWxsOiMwMDAwMDA7c3Ryb2tlOiMwMDAwMDA7c3Ryb2tlLXdpZHRoOjM3LjM5NTM7c3Ryb2tlLWxpbmVjYXA6YnV0dDtzdHJva2UtbGluZWpvaW46bWl0ZXI7Ii8+JiN4YTs8cGF0aCBkPSJNNDAyLjM5NSwyNzEuMjNjLTUwLjMwMiwxMC4zNzYtNTMuNzYtNi42NTUtNTMuNzYtNi42NTVjNTMuMTExLTc4LjgwOCw3NS4zMTMtMTc4Ljg0Myw1Ni4xNTMtMjAzLjMyNmMtNTIuMjctNjYuNzg1LTE0Mi43NTItMzUuMi0xNDQuMjYyLTM0LjM4bC0wLjQ4NiwwLjA4N2MtOS45MzgtMi4wNjMtMjEuMDYtMy4yOTItMzMuNTYtMy40OTZjLTIyLjc2MS0wLjM3My00MC4wMjYsNS45NjctNTMuMTI3LDE1LjkwMiAgICBjMCwwLTE2MS40MTEtNjYuNDk1LTE1My45MDQsODMuNjNjMS41OTcsMzEuOTM4LDQ1Ljc3NiwyNDEuNjU3LDk4LjQ3MSwxNzguMzEyYzE5LjI2LTIzLjE2MywzNy44NjktNDIuNzQ4LDM3Ljg2OS00Mi43NDhjOS4yNDMsNi4xNCwyMC4zMDgsOS4yNzIsMzEuOTA4LDguMTQ3bDAuOTAxLTAuNzY1Yy0wLjI4LDIuODc2LTAuMTUyLDUuNjg5LDAuMzYxLDkuMDE5Yy0xMy41NzUsMTUuMTY3LTkuNTg2LDE3LjgzLTM2LjcyMywyMy40MTYgICAgYy0yNy40NTksNS42NTktMTEuMzI4LDE1LjczNC0wLjc5NiwxOC4zNjdjMTIuNzY4LDMuMTkzLDQyLjMwNyw3LjcxNiw2Mi4yNjYtMjAuMjI0bC0wLjc5NiwzLjE4OGM1LjMxOSw0LjI2LDkuMDU0LDI3LjcxMSw4LjQyOCw0OC45NjljLTAuNjI2LDIxLjI1OS0xLjA0NCwzNS44NTQsMy4xNDcsNDcuMjU0YzQuMTkxLDExLjQsOC4zNjgsMzcuMDUsNDQuMDQyLDI5LjQwNmMyOS44MDktNi4zODgsNDUuMjU2LTIyLjk0Miw0Ny40MDUtNTAuNTU1ICAgIGMxLjUyNS0xOS42MzEsNC45NzYtMTYuNzI5LDUuMTk0LTM0LjI4bDIuNzY4LTguMzA5YzMuMTkyLTI2LjYxMSwwLjUwNy0zNS4xOTYsMTguODcyLTMxLjIwM2w0LjQ2MywwLjM5MmMxMy41MTcsMC42MTUsMzEuMjA4LTIuMTc0LDQxLjU5MS03YzIyLjM1OC0xMC4zNzYsMzUuNjE4LTI3LjcsMTMuNTczLTIzLjE0OHoiIHN0eWxlPSJmaWxsOiMzMzY3OTE7c3Ryb2tlOm5vbmU7Ii8+JiN4YTs8cGF0aCBkPSJNMjE1Ljg2NiwyODYuNDg0Yy0xLjM4NSw0OS41MTYsMC4zNDgsOTkuMzc3LDUuMTkzLDExMS40OTVjNC44NDgsMTIuMTE4LDE1LjIyMywzNS42ODgsNTAuOSwyOC4wNDVjMjkuODA2LTYuMzksNDAuNjUxLTE4Ljc1Niw0NS4zNTctNDYuMDUxYzMuNDY2LTIwLjA4MiwxMC4xNDgtNzUuODU0LDExLjAwNS04Ny4yODEiLz4mI3hhOzxwYXRoIGQ9Ik0xNzMuMTA0LDM4LjI1NmMwLDAtMTYxLjUyMS02Ni4wMTYtMTU0LjAxMiw4NC4xMDljMS41OTcsMzEuOTM4LDQ1Ljc3OSwyNDEuNjY0LDk4LjQ3MywxNzguMzE2YzE5LjI1Ni0yMy4xNjYsMzYuNjcxLTQxLjMzNSwzNi42NzEtNDEuMzM1Ii8+JiN4YTs8cGF0aCBkPSJNMjYwLjM0OSwyNi4yMDdjLTUuNTkxLDEuNzUzLDg5Ljg0OC0zNC44ODksMTQ0LjA4NywzNC40MTdjMTkuMTU5LDI0LjQ4NC0zLjA0MywxMjQuNTE5LTU2LjE1MywyMDMuMzI5Ii8+JiN4YTs8cGF0aCBkPSJNMzQ4LjI4MiwyNjMuOTUzYzAsMCwzLjQ2MSwxNy4wMzYsNTMuNzY0LDYuNjUzYzIyLjA0LTQuNTUyLDguNzc2LDEyLjc3NC0xMy41NzcsMjMuMTU1Yy0xOC4zNDUsOC41MTQtNTkuNDc0LDEwLjY5Ni02MC4xNDYtMS4wNjljLTEuNzI5LTMwLjM1NSwyMS42NDctMjEuMTMzLDE5Ljk2LTI4LjczOWMtMS41MjUtNi44NS0xMS45NzktMTMuNTczLTE4Ljg5NC0zMC4zMzggICAgYy02LjAzNy0xNC42MzMtODIuNzk2LTEyNi44NDksMjEuMjg3LTExMC4xODNjMy44MTMtMC43ODktMjcuMTQ2LTk5LjAwMi0xMjQuNTUzLTEwMC41OTljLTk3LjM4NS0xLjU5Ny05NC4xOSwxMTkuNzYyLTk0LjE5LDExOS43NjIiIHN0eWxlPSJzdHJva2UtbGluZWpvaW46YmV2ZWw7Ii8+JiN4YTs8cGF0aCBkPSJNMTg4LjYwNCwyNzQuMzM0Yy0xMy41NzcsMTUuMTY2LTkuNTg0LDE3LjgyOS0zNi43MjMsMjMuNDE3Yy0yNy40NTksNS42Ni0xMS4zMjYsMTUuNzMzLTAuNzk3LDE4LjM2NWMxMi43NjgsMy4xOTUsNDIuMzA3LDcuNzE4LDYyLjI2Ni0yMC4yMjljNi4wNzgtOC41MDktMC4wMzYtMjIuMDg2LTguMzg1LTI1LjU0N2MtNC4wMzQtMS42NzEtOS40MjgtMy43NjUtMTYuMzYxLDMuOTk0eiIvPiYjeGE7PHBhdGggZD0iTTE4Ny43MTUsMjc0LjA2OWMtMS4zNjgtOC45MTcsMi45My0xOS41MjgsNy41MzYtMzEuOTQyYzYuOTIyLTE4LjYyNiwyMi44OTMtMzcuMjU1LDEwLjExNy05Ni4zMzljLTkuNTIzLTQ0LjAyOS03My4zOTYtOS4xNjMtNzMuNDM2LTMuMTkzYy0wLjAzOSw1Ljk2OCwyLjg4OSwzMC4yNi0xLjA2Nyw1OC41NDhjLTUuMTYyLDM2LjkxMywyMy40ODgsNjguMTMyLDU2LjQ3OSw2NC45MzgiLz4mI3hhOzxwYXRoIGQ9Ik0xNzIuNTE3LDE0MS43Yy0wLjI4OCwyLjAzOSwzLjczMyw3LjQ4LDguOTc2LDguMjA3YzUuMjM0LDAuNzMsOS43MTQtMy41MjIsOS45OTgtNS41NTljMC4yODQtMi4wMzktMy43MzItNC4yODUtOC45NzctNS4wMTVjLTUuMjM3LTAuNzMxLTkuNzE5LDAuMzMzLTkuOTk2LDIuMzY3eiIgc3R5bGU9ImZpbGw6I0ZGRkZGRjtzdHJva2Utd2lkdGg6NC4xNTU7c3Ryb2tlLWxpbmVjYXA6YnV0dDtzdHJva2UtbGluZWpvaW46bWl0ZXI7Ii8+JiN4YTs8cGF0aCBkPSJNMzMxLjk0MSwxMzcuNTQzYzAuMjg0LDIuMDM5LTMuNzMyLDcuNDgtOC45NzYsOC4yMDdjLTUuMjM4LDAuNzMtOS43MTgtMy41MjItMTAuMDA1LTUuNTU5Yy0wLjI3Ny0yLjAzOSwzLjc0LTQuMjg1LDguOTc5LTUuMDE1YzUuMjM5LTAuNzMsOS43MTgsMC4zMzMsMTAuMDAyLDIuMzY4eiIgc3R5bGU9ImZpbGw6I0ZGRkZGRjtzdHJva2Utd2lkdGg6Mi4wNzc1O3N0cm9rZS1saW5lY2FwOmJ1dHQ7c3Ryb2tlLWxpbmVqb2luOm1pdGVyOyIvPiYjeGE7PHBhdGggZD0iTTM1MC42NzYsMTIzLjQzMmMwLjg2MywxNS45OTQtMy40NDUsMjYuODg4LTMuOTg4LDQzLjkxNGMtMC44MDQsMjQuNzQ4LDExLjc5OSw1My4wNzQtNy4xOTEsODEuNDM1Ii8+JiN4YTs8cGF0aCBkPSJNMCw2MC4yMzIiIHN0eWxlPSJzdHJva2Utd2lkdGg6MzsiLz4mI3hhOzwvZz4mI3hhOzwvc3ZnPg==;" parent="lrIJ7dgzQLznSiRaQzVH-6" vertex="1">
          <mxGeometry x="6.099999999999966" y="18.5" width="22.81" height="23.5" as="geometry" />
        </mxCell>
        <mxCell id="lrIJ7dgzQLznSiRaQzVH-10" value="REST API Server" style="text;html=1;strokeColor=none;fillColor=none;align=center;verticalAlign=middle;whiteSpace=wrap;rounded=0;fontSize=9;spacing=2;horizontal=1;" parent="1" vertex="1">
          <mxGeometry x="198" y="542" width="60" height="28" as="geometry" />
        </mxCell>
        <mxCell id="lrIJ7dgzQLznSiRaQzVH-20" value="Database" style="text;html=1;strokeColor=none;fillColor=none;align=center;verticalAlign=middle;whiteSpace=wrap;rounded=0;fontSize=9;spacing=2;horizontal=1;" parent="1" vertex="1">
          <mxGeometry x="370" y="489" width="60" height="28" as="geometry" />
        </mxCell>
        <mxCell id="lrIJ7dgzQLznSiRaQzVH-21" value="Database Initialiser" style="text;html=1;strokeColor=none;fillColor=none;align=center;verticalAlign=middle;whiteSpace=wrap;rounded=0;fontSize=9;spacing=2;horizontal=1;" parent="1" vertex="1">
          <mxGeometry x="198" y="442" width="60" height="28" as="geometry" />
        </mxCell>
        <mxCell id="lrIJ7dgzQLznSiRaQzVH-23" value="Fetch/Edit rows in database" style="text;html=1;strokeColor=none;fillColor=none;align=center;verticalAlign=middle;whiteSpace=wrap;rounded=0;fontSize=9;spacing=2;horizontal=1;" parent="1" vertex="1">
          <mxGeometry x="241.5" y="469" width="91" height="30" as="geometry" />
        </mxCell>
        <mxCell id="lrIJ7dgzQLznSiRaQzVH-24" value="HTTP Requests" style="text;html=1;strokeColor=none;fillColor=none;align=center;verticalAlign=middle;whiteSpace=wrap;rounded=0;fontSize=9;spacing=2;horizontal=1;" parent="1" vertex="1">
          <mxGeometry x="123.5" y="487" width="91" height="30" as="geometry" />
        </mxCell>
        <mxCell id="lrIJ7dgzQLznSiRaQzVH-26" style="edgeStyle=orthogonalEdgeStyle;rounded=0;orthogonalLoop=1;jettySize=auto;html=1;exitX=1;exitY=0.5;exitDx=0;exitDy=0;" parent="1" source="lrIJ7dgzQLznSiRaQzVH-37" target="lrIJ7dgzQLznSiRaQzVH-34" edge="1">
          <mxGeometry relative="1" as="geometry">
            <mxPoint x="123.5" y="515.83" as="sourcePoint" />
            <mxPoint x="214.5" y="516" as="targetPoint" />
          </mxGeometry>
        </mxCell>
        <mxCell id="Gyes6UkAJcrJU4tyv3z2-8" style="edgeStyle=orthogonalEdgeStyle;rounded=0;orthogonalLoop=1;jettySize=auto;html=1;" edge="1" parent="1" source="lrIJ7dgzQLznSiRaQzVH-34" target="Gyes6UkAJcrJU4tyv3z2-6">
          <mxGeometry relative="1" as="geometry">
            <Array as="points">
              <mxPoint x="340" y="540" />
              <mxPoint x="340" y="570" />
            </Array>
          </mxGeometry>
        </mxCell>
        <mxCell id="lrIJ7dgzQLznSiRaQzVH-34" value="" style="sketch=0;pointerEvents=1;shadow=0;dashed=0;html=1;strokeColor=none;labelPosition=center;verticalLabelPosition=bottom;verticalAlign=top;outlineConnect=0;align=center;shape=mxgraph.office.servers.server_generic;fillColor=#7FBA42;" parent="1" vertex="1">
          <mxGeometry x="214.5" y="490" width="27" height="52" as="geometry" />
        </mxCell>
        <mxCell id="Gyes6UkAJcrJU4tyv3z2-12" style="edgeStyle=orthogonalEdgeStyle;rounded=0;orthogonalLoop=1;jettySize=auto;html=1;" edge="1" parent="1" source="lrIJ7dgzQLznSiRaQzVH-36" target="lrIJ7dgzQLznSiRaQzVH-3">
          <mxGeometry relative="1" as="geometry">
            <Array as="points">
              <mxPoint x="340" y="416" />
              <mxPoint x="340" y="465" />
            </Array>
          </mxGeometry>
        </mxCell>
        <mxCell id="lrIJ7dgzQLznSiRaQzVH-36" value="" style="sketch=0;pointerEvents=1;shadow=0;dashed=0;html=1;strokeColor=none;labelPosition=center;verticalLabelPosition=bottom;verticalAlign=top;outlineConnect=0;align=center;shape=mxgraph.office.servers.server_generic;fillColor=#DA4026;" parent="1" vertex="1">
          <mxGeometry x="214.5" y="390" width="27" height="52" as="geometry" />
        </mxCell>
        <mxCell id="lrIJ7dgzQLznSiRaQzVH-37" value="Client / Server" style="text;html=1;strokeColor=none;fillColor=none;align=center;verticalAlign=middle;whiteSpace=wrap;rounded=0;fontSize=9;spacing=2;horizontal=1;" parent="1" vertex="1">
          <mxGeometry x="60" y="499" width="40" height="34" as="geometry" />
        </mxCell>
        <mxCell id="Gyes6UkAJcrJU4tyv3z2-13" style="edgeStyle=orthogonalEdgeStyle;rounded=0;orthogonalLoop=1;jettySize=auto;html=1;" edge="1" parent="1" source="Gyes6UkAJcrJU4tyv3z2-2" target="Gyes6UkAJcrJU4tyv3z2-6">
          <mxGeometry relative="1" as="geometry">
            <Array as="points">
              <mxPoint x="340" y="600" />
              <mxPoint x="340" y="570" />
            </Array>
          </mxGeometry>
        </mxCell>
        <mxCell id="Gyes6UkAJcrJU4tyv3z2-16" style="edgeStyle=orthogonalEdgeStyle;rounded=0;orthogonalLoop=1;jettySize=auto;html=1;" edge="1" parent="1" source="Gyes6UkAJcrJU4tyv3z2-2" target="lrIJ7dgzQLznSiRaQzVH-3">
          <mxGeometry relative="1" as="geometry">
            <Array as="points">
              <mxPoint x="460" y="630" />
              <mxPoint x="460" y="465" />
            </Array>
          </mxGeometry>
        </mxCell>
        <mxCell id="Gyes6UkAJcrJU4tyv3z2-2" value="" style="sketch=0;pointerEvents=1;shadow=0;dashed=0;html=1;strokeColor=none;fillColor=#505050;labelPosition=center;verticalLabelPosition=bottom;verticalAlign=top;outlineConnect=0;align=center;shape=mxgraph.office.servers.server_generic;" vertex="1" parent="1">
          <mxGeometry x="214.5" y="585" width="27" height="52" as="geometry" />
        </mxCell>
        <mxCell id="Gyes6UkAJcrJU4tyv3z2-3" value="Expired Room Deleter" style="text;html=1;strokeColor=none;fillColor=none;align=center;verticalAlign=middle;whiteSpace=wrap;rounded=0;fontSize=9;spacing=2;horizontal=1;" vertex="1" parent="1">
          <mxGeometry x="198" y="637" width="60" height="28" as="geometry" />
        </mxCell>
        <mxCell id="Gyes6UkAJcrJU4tyv3z2-7" value="" style="group" vertex="1" connectable="0" parent="1">
          <mxGeometry x="369.99499999999995" y="557.9950000000001" width="61.16999999999996" height="25.340000000000032" as="geometry" />
        </mxCell>
        <mxCell id="Gyes6UkAJcrJU4tyv3z2-6" value="" style="sketch=0;shadow=0;dashed=0;html=1;strokeColor=none;labelPosition=center;verticalLabelPosition=bottom;verticalAlign=top;outlineConnect=0;align=center;shape=mxgraph.office.databases.database;fillColor=#7FBA42;rotation=-90;" vertex="1" parent="Gyes6UkAJcrJU4tyv3z2-7">
          <mxGeometry x="17.91500000000002" y="-17.915000000000077" width="25.34" height="61.17" as="geometry" />
        </mxCell>
        <mxCell id="Gyes6UkAJcrJU4tyv3z2-5" value="" style="shape=image;verticalLabelPosition=bottom;labelBackgroundColor=default;verticalAlign=top;aspect=fixed;imageAspect=0;image=data:image/svg+xml,PHN2ZyB4bWxucz0iaHR0cDovL3d3dy53My5vcmcvMjAwMC9zdmciIHByZXNlcnZlQXNwZWN0UmF0aW89InhNaWRZTWlkIiB2aWV3Qm94PSIwIDAgMjU2IDI3MC43Njk5ODkwMTM2NzE5IiBoZWlnaHQ9IjI0OTcuODc4MTI3NDMyMzk3NCIgd2lkdGg9IjIzNjIiPjxwYXRoIGZpbGw9IiNGNjAiIGQ9Ik0yNDUuNDQgMTA4LjMwOGgtODUuMDlhNy43MzggNy43MzggMCAwIDEtNy43MzUtNy43MzR2LTg4LjY4QzE1Mi42MTUgNS4zMjcgMTQ3LjI5IDAgMTQwLjcyNiAwaC0zMC4zNzVjLTYuNTY4IDAtMTEuODkgNS4zMjctMTEuODkgMTEuODk0djg4LjE0M2MwIDQuNTczLTMuNjk3IDguMjktOC4yNyA4LjMxbC0yNy44ODUuMTMzYy00LjYxMi4wMjUtOC4zNTktMy43MTctOC4zNS04LjMyNWwuMTczLTg4LjI0MUM1NC4xNDQgNS4zMzcgNDguODE3IDAgNDIuMjQgMEgxMS44OUM1LjMyMSAwIDAgNS4zMjcgMCAxMS44OTRWMjYwLjIxYzAgNS44MzQgNC43MjYgMTAuNTYgMTAuNTU1IDEwLjU2SDI0NS40NGM1LjgzNCAwIDEwLjU2LTQuNzI2IDEwLjU2LTEwLjU2VjExOC44NjhjMC01LjgzNC00LjcyNi0xMC41Ni0xMC41Ni0xMC41NnptLTM5LjkwMiA5My4yMzNjMCA3LjY0NS02LjE5OCAxMy44NDQtMTMuODQzIDEzLjg0NEgxNjcuNjljLTcuNjQ2IDAtMTMuODQ0LTYuMTk5LTEzLjg0NC0xMy44NDR2LTI0LjAwNWMwLTcuNjQ2IDYuMTk4LTEzLjg0NCAxMy44NDQtMTMuODQ0aDI0LjAwNWM3LjY0NSAwIDEzLjg0MyA2LjE5OCAxMy44NDMgMTMuODQ0djI0LjAwNXoiLz48L3N2Zz4=;" vertex="1" parent="Gyes6UkAJcrJU4tyv3z2-7">
          <mxGeometry x="23.085000000000036" y="2.6749999999999545" width="18.91" height="20" as="geometry" />
        </mxCell>
        <mxCell id="Gyes6UkAJcrJU4tyv3z2-10" value="Create entities" style="text;html=1;strokeColor=none;fillColor=none;align=center;verticalAlign=middle;whiteSpace=wrap;rounded=0;fontSize=9;spacing=2;horizontal=1;" vertex="1" parent="1">
          <mxGeometry x="241.5" y="390" width="91" height="30" as="geometry" />
        </mxCell>
        <mxCell id="Gyes6UkAJcrJU4tyv3z2-14" value="Publish &quot;create room&quot; and &quot;remove user from room&quot; events" style="text;html=1;strokeColor=none;fillColor=none;align=center;verticalAlign=middle;whiteSpace=wrap;rounded=0;fontSize=9;spacing=2;horizontal=1;" vertex="1" parent="1">
          <mxGeometry x="241.5" y="507" width="98.5" height="30" as="geometry" />
        </mxCell>
        <mxCell id="Gyes6UkAJcrJU4tyv3z2-15" value="Publish &quot;delete room&quot; events" style="text;html=1;strokeColor=none;fillColor=none;align=center;verticalAlign=middle;whiteSpace=wrap;rounded=0;fontSize=9;spacing=2;horizontal=1;" vertex="1" parent="1">
          <mxGeometry x="241.5" y="570" width="98.5" height="30" as="geometry" />
        </mxCell>
        <mxCell id="Gyes6UkAJcrJU4tyv3z2-17" value="Message Broker" style="text;html=1;strokeColor=none;fillColor=none;align=center;verticalAlign=middle;whiteSpace=wrap;rounded=0;fontSize=9;spacing=2;horizontal=1;" vertex="1" parent="1">
          <mxGeometry x="371.16" y="583.34" width="60" height="28" as="geometry" />
        </mxCell>
        <mxCell id="Gyes6UkAJcrJU4tyv3z2-21" value="Fetch expired rooms" style="text;html=1;strokeColor=none;fillColor=none;align=center;verticalAlign=middle;whiteSpace=wrap;rounded=0;fontSize=9;spacing=2;horizontal=1;" vertex="1" parent="1">
          <mxGeometry x="241.5" y="610" width="98.5" height="20" as="geometry" />
        </mxCell>
        <mxCell id="Gyes6UkAJcrJU4tyv3z2-22" value="Subscribe" style="text;html=1;strokeColor=none;fillColor=none;align=center;verticalAlign=middle;whiteSpace=wrap;rounded=0;fontSize=9;spacing=2;horizontal=1;" vertex="1" parent="1">
          <mxGeometry x="460" y="550" width="60" height="20" as="geometry" />
        </mxCell>
        <mxCell id="Gyes6UkAJcrJU4tyv3z2-24" style="edgeStyle=orthogonalEdgeStyle;rounded=0;orthogonalLoop=1;jettySize=auto;html=1;exitX=0;exitY=0.5;exitDx=0;exitDy=0;jumpStyle=arc;" edge="1" parent="1" source="Gyes6UkAJcrJU4tyv3z2-23" target="Gyes6UkAJcrJU4tyv3z2-6">
          <mxGeometry relative="1" as="geometry" />
        </mxCell>
        <mxCell id="Gyes6UkAJcrJU4tyv3z2-23" value="Client / Server" style="text;html=1;strokeColor=none;fillColor=none;align=center;verticalAlign=middle;whiteSpace=wrap;rounded=0;fontSize=9;spacing=2;horizontal=1;" vertex="1" parent="1">
          <mxGeometry x="540" y="553.67" width="40" height="34" as="geometry" />
        </mxCell>
        <mxCell id="Gyes6UkAJcrJU4tyv3z2-26" value="&lt;u&gt;Room Service&lt;/u&gt;" style="text;html=1;strokeColor=none;fillColor=none;align=center;verticalAlign=middle;whiteSpace=wrap;rounded=0;fontSize=9;spacing=2;horizontal=1;" vertex="1" parent="1">
          <mxGeometry x="130" y="380" width="70" height="20" as="geometry" />
        </mxCell>
      </root>
    </mxGraphModel>
  </diagram>
</mxfile>
